# xmcd
#
# Track frame offsets:
# 150
# 8887
# 22603
# 40323
# 54037
# 71794
# 85103
# 103222
# 116619
# 133725
# 149327
# 159674
# 174169
# 190804
#
# Disc length: 2719 seconds
#
#
# Revision: 0
# Processed by: cddbd v1.5.2PL0 Copyright (c) Steve Scherf et al.
# Submitted via: FreeRIP 2.945 
#
DISCID=b20a9d0e
DTITLE=Nobody's Darlin' - This World Is Not My Home
DYEAR=2007
DGENRE=Folk
TTITLE0=Cluck Old Hen
TTITLE1=June Apple
TTITLE2=Columbus Stockade Blues
TTITLE3=I'll Fly Away
TTITLE4=Goin' Down The Road Feelin' Bad
TTITLE5=Thanks A Lot
TTITLE6=Lonesome Fiddle Blues
TTITLE7=Sail Away Ladies
TTITLE8=This World Is Not My Home
TTITLE9=The Coo-Coo
TTITLE10=Buffal Gals
TTITLE11=Old Home Place
TTITLE12=Long Journey Home
TTITLE13=Greener Pastures
EXTD=Old-Time country fiddle, banjo, guitar and bass.
EXTT0=
EXTT1=
EXTT2=
EXTT3=
EXTT4=
EXTT5=
EXTT6=
EXTT7=
EXTT8=
EXTT9=
EXTT10=
EXTT11=
EXTT12=
EXTT13=
PLAYORDER=
